# This file uses centimeters as units for non-parametric coordinates.

mtllib BounceWall.mtl
g default
v -67.077988 11.086880 -32.718658
v -64.729958 11.086880 -31.988405
v -67.077988 19.519394 -32.718658
v -64.729958 19.519394 -31.988405
v -33.558899 19.519394 -66.237747
v -32.828648 19.519394 -63.889717
v -33.558899 11.086880 -66.237747
v -32.828648 11.086880 -63.889717
v -67.031128 11.086880 -25.203480
v -64.683105 11.086880 -25.231899
v -64.683105 19.519394 -25.231899
v -67.031128 19.519394 -25.203480
v -26.049034 19.519394 -66.219345
v -26.072144 19.519394 -63.871323
v -26.072144 11.086880 -63.871323
v -26.049034 11.086880 -66.219345
vt 0.375000 0.000000
vt 0.625000 0.000000
vt 0.625000 0.250000
vt 0.375000 0.250000
vt 0.375000 0.250000
vt 0.625000 0.250000
vt 0.625000 0.500000
vt 0.375000 0.500000
vt 0.375000 0.500000
vt 0.625000 0.500000
vt 0.625000 0.750000
vt 0.375000 0.750000
vt 0.375000 0.750000
vt 0.625000 0.750000
vt 0.625000 1.000000
vt 0.375000 1.000000
vt 0.625000 0.000000
vt 0.875000 0.000000
vt 0.875000 0.250000
vt 0.125000 0.000000
vt 0.375000 0.000000
vt 0.125000 0.250000
vn 0.012102 0.000000 0.999927
vn 0.012102 0.000000 0.999927
vn 0.012102 0.000000 0.999927
vn 0.012102 0.000000 0.999927
vn 0.000000 1.000000 0.000000
vn 0.000000 1.000000 0.000000
vn 0.000000 1.000000 0.000000
vn 0.000000 1.000000 0.000000
vn 0.999952 0.000000 0.009842
vn 0.999952 0.000000 0.009842
vn 0.999952 0.000000 0.009842
vn 0.999952 0.000000 0.009842
vn 0.000000 -1.000000 0.000000
vn 0.000000 -1.000000 0.000000
vn 0.000000 -1.000000 0.000000
vn 0.000000 -1.000000 0.000000
vn 0.707107 0.000000 0.707107
vn 0.707107 0.000000 0.707107
vn 0.707107 0.000000 0.707107
vn 0.707107 0.000000 0.707107
vn -0.707107 0.000000 -0.707107
vn -0.707107 0.000000 -0.707107
vn -0.707107 0.000000 -0.707107
vn -0.707107 0.000000 -0.707107
vn 0.000000 -1.000000 0.000000
vn 0.000000 -1.000000 0.000000
vn 0.000000 -1.000000 0.000000
vn 0.000000 -1.000000 0.000000
vn 0.999976 0.000000 -0.006934
vn 0.999976 0.000000 -0.006934
vn 0.999976 0.000000 -0.006934
vn 0.999976 0.000000 -0.006934
vn 0.000000 1.000000 0.000000
vn 0.000000 1.000000 0.000000
vn 0.000000 1.000000 0.000000
vn 0.000000 1.000000 0.000000
vn -0.999981 0.000000 0.006235
vn -0.999981 0.000000 0.006235
vn -0.999981 0.000000 0.006235
vn -0.999981 0.000000 0.006235
vn 0.000000 1.000000 0.000000
vn 0.000000 1.000000 0.000000
vn 0.000000 1.000000 0.000001
vn 0.000000 1.000000 0.000001
vn -0.002723 0.000000 0.999996
vn -0.002723 0.000000 0.999996
vn -0.002723 0.000000 0.999996
vn -0.002723 0.000000 0.999996
vn 0.000000 -1.000000 0.000000
vn 0.000000 -1.000000 0.000000
vn 0.000000 -1.000000 0.000000
vn 0.000000 -1.000000 0.000000
vn 0.002450 0.000000 -0.999997
vn 0.002450 0.000000 -0.999997
vn 0.002450 0.000000 -0.999997
vn 0.002450 0.000000 -0.999997
s off
g polySurface1 levelone:polySurface1
usemtl levelone:initialShadingGroup
f 9/1/1 10/2/2 11/3/3 12/4/4
f 3/5/5 4/6/6 6/7/7 5/8/8
f 13/9/9 14/10/10 15/11/11 16/12/12
f 7/13/13 8/14/14 2/15/15 1/16/16
f 2/17/17 8/18/18 6/19/19 4/6/20
f 7/20/21 1/21/22 3/5/23 5/22/24
f 1/21/25 2/17/26 10/2/27 9/1/28
f 2/17/29 4/6/30 11/3/31 10/2/32
f 4/6/33 3/5/34 12/4/35 11/3/36
f 3/5/37 1/21/38 9/1/39 12/4/40
f 5/8/41 6/7/42 14/10/43 13/9/44
f 6/7/45 8/14/46 15/11/47 14/10/48
f 8/14/49 7/13/50 16/12/51 15/11/52
f 7/13/53 5/8/54 13/9/55 16/12/56
